<mxfile host="app.diagrams.net" modified="2022-06-12T13:49:58.910Z" agent="5.0 (Windows NT 10.0; Win64; x64) AppleWebKit/537.36 (KHTML, like Gecko) Chrome/102.0.0.0 Safari/537.36" etag="dhC1_gz-c6TtaxddoofF" version="20.0.0" type="gitlab">
  <diagram id="R6IT85oXe3QGoRo9RYJ-" name="Page-1">
    <mxGraphModel dx="2062" dy="1122" grid="1" gridSize="10" guides="1" tooltips="1" connect="1" arrows="1" fold="1" page="1" pageScale="1" pageWidth="1654" pageHeight="2336" math="0" shadow="0">
      <root>
        <mxCell id="0" />
        <mxCell id="1" parent="0" />
        <mxCell id="LuwpnqyTdQGJ-KJP5wzV-1" value="alt" style="shape=umlFrame;whiteSpace=wrap;html=1;fontSize=11;" vertex="1" parent="1">
          <mxGeometry x="350" y="230" width="875" height="310" as="geometry" />
        </mxCell>
        <mxCell id="LuwpnqyTdQGJ-KJP5wzV-2" value="" style="shape=umlLifeline;participant=umlActor;perimeter=lifelinePerimeter;whiteSpace=wrap;html=1;container=1;collapsible=0;recursiveResize=0;verticalAlign=top;spacingTop=36;outlineConnect=0;fontSize=13;" vertex="1" parent="1">
          <mxGeometry x="410" y="50" width="20" height="610" as="geometry" />
        </mxCell>
        <mxCell id="LuwpnqyTdQGJ-KJP5wzV-3" value="" style="html=1;points=[];perimeter=orthogonalPerimeter;fontSize=13;" vertex="1" parent="LuwpnqyTdQGJ-KJP5wzV-2">
          <mxGeometry x="5" y="60" width="10" height="530" as="geometry" />
        </mxCell>
        <mxCell id="LuwpnqyTdQGJ-KJP5wzV-4" value="&lt;span style=&quot;color: rgb(0, 0, 0); font-family: Helvetica; font-size: 11px; font-style: normal; font-variant-ligatures: normal; font-variant-caps: normal; font-weight: 400; letter-spacing: normal; orphans: 2; text-align: center; text-indent: 0px; text-transform: none; widows: 2; word-spacing: 0px; -webkit-text-stroke-width: 0px; background-color: rgb(248, 249, 250); text-decoration-thickness: initial; text-decoration-style: initial; text-decoration-color: initial; float: none; display: inline !important;&quot;&gt;SupplierFacade&lt;/span&gt;" style="shape=umlLifeline;perimeter=lifelinePerimeter;whiteSpace=wrap;html=1;container=1;collapsible=0;recursiveResize=0;outlineConnect=0;fontSize=13;" vertex="1" parent="1">
          <mxGeometry x="540" y="50" width="100" height="600" as="geometry" />
        </mxCell>
        <mxCell id="LuwpnqyTdQGJ-KJP5wzV-5" value="" style="html=1;points=[];perimeter=orthogonalPerimeter;fontSize=13;" vertex="1" parent="LuwpnqyTdQGJ-KJP5wzV-4">
          <mxGeometry x="45" y="50" width="10" height="500" as="geometry" />
        </mxCell>
        <mxCell id="LuwpnqyTdQGJ-KJP5wzV-6" value="addSupplier(name, BN,delivery,&lt;br&gt;Paymenr method, address,supply days)" style="html=1;verticalAlign=bottom;endArrow=block;rounded=0;fontSize=7;exitX=1.003;exitY=0.058;exitDx=0;exitDy=0;exitPerimeter=0;" edge="1" parent="LuwpnqyTdQGJ-KJP5wzV-4" source="LuwpnqyTdQGJ-KJP5wzV-3">
          <mxGeometry x="-0.0325" width="80" relative="1" as="geometry">
            <mxPoint x="-110" y="90" as="sourcePoint" />
            <mxPoint x="44.97000000000003" y="90.24000000000001" as="targetPoint" />
            <Array as="points">
              <mxPoint x="-5.029999999999973" y="90.24000000000001" />
            </Array>
            <mxPoint as="offset" />
          </mxGeometry>
        </mxCell>
        <mxCell id="LuwpnqyTdQGJ-KJP5wzV-7" value="&lt;span style=&quot;font-size: 11px;&quot;&gt;SupplierController&lt;/span&gt;" style="shape=umlLifeline;perimeter=lifelinePerimeter;whiteSpace=wrap;html=1;container=1;collapsible=0;recursiveResize=0;outlineConnect=0;fontSize=13;" vertex="1" parent="1">
          <mxGeometry x="705" y="50" width="100" height="600" as="geometry" />
        </mxCell>
        <mxCell id="LuwpnqyTdQGJ-KJP5wzV-8" value="" style="html=1;points=[];perimeter=orthogonalPerimeter;fontSize=13;" vertex="1" parent="LuwpnqyTdQGJ-KJP5wzV-7">
          <mxGeometry x="45" y="50" width="10" height="500" as="geometry" />
        </mxCell>
        <mxCell id="LuwpnqyTdQGJ-KJP5wzV-9" value="1: addSupplier(name, BN,delivery,&lt;br&gt;Paymenr method, address,supply days)" style="html=1;verticalAlign=bottom;endArrow=block;rounded=0;fontSize=7;exitX=1.003;exitY=0.058;exitDx=0;exitDy=0;exitPerimeter=0;" edge="1" parent="LuwpnqyTdQGJ-KJP5wzV-7">
          <mxGeometry x="-0.0325" width="80" relative="1" as="geometry">
            <mxPoint x="-110" y="120.25000000000023" as="sourcePoint" />
            <mxPoint x="45" y="120" as="targetPoint" />
            <Array as="points">
              <mxPoint x="-0.05999999999994543" y="119.75" />
            </Array>
            <mxPoint as="offset" />
          </mxGeometry>
        </mxCell>
        <mxCell id="LuwpnqyTdQGJ-KJP5wzV-10" value="&lt;span style=&quot;font-size: 11px;&quot;&gt;SupplierMapper&lt;/span&gt;" style="shape=umlLifeline;perimeter=lifelinePerimeter;whiteSpace=wrap;html=1;container=1;collapsible=0;recursiveResize=0;outlineConnect=0;fontSize=13;" vertex="1" parent="1">
          <mxGeometry x="870" y="50" width="100" height="600" as="geometry" />
        </mxCell>
        <mxCell id="LuwpnqyTdQGJ-KJP5wzV-11" value="" style="html=1;points=[];perimeter=orthogonalPerimeter;fontSize=13;" vertex="1" parent="LuwpnqyTdQGJ-KJP5wzV-10">
          <mxGeometry x="45" y="50" width="10" height="500" as="geometry" />
        </mxCell>
        <mxCell id="LuwpnqyTdQGJ-KJP5wzV-12" value="&lt;font style=&quot;font-size: 7px;&quot;&gt;1.1.1:CheckSupplierNotExists(BN)&lt;/font&gt;" style="edgeStyle=orthogonalEdgeStyle;html=1;align=left;spacingLeft=2;endArrow=block;rounded=0;fontSize=11;" edge="1" parent="LuwpnqyTdQGJ-KJP5wzV-10">
          <mxGeometry relative="1" as="geometry">
            <mxPoint x="55" y="150" as="sourcePoint" />
            <Array as="points">
              <mxPoint x="88" y="150" />
              <mxPoint x="88" y="170" />
            </Array>
            <mxPoint x="55" y="170" as="targetPoint" />
          </mxGeometry>
        </mxCell>
        <mxCell id="LuwpnqyTdQGJ-KJP5wzV-13" value="1.1: insert(name, BN,delivery,&lt;br&gt;Paymenr method, address,supply days)" style="html=1;verticalAlign=bottom;endArrow=block;rounded=0;fontSize=7;exitX=1.003;exitY=0.058;exitDx=0;exitDy=0;exitPerimeter=0;" edge="1" parent="1">
          <mxGeometry x="-0.0325" width="80" relative="1" as="geometry">
            <mxPoint x="760" y="190.50000000000023" as="sourcePoint" />
            <mxPoint x="915" y="190.25" as="targetPoint" />
            <Array as="points">
              <mxPoint x="869.94" y="190" />
            </Array>
            <mxPoint as="offset" />
          </mxGeometry>
        </mxCell>
        <mxCell id="LuwpnqyTdQGJ-KJP5wzV-14" value="" style="shape=umlLifeline;perimeter=lifelinePerimeter;whiteSpace=wrap;html=1;container=1;collapsible=0;recursiveResize=0;outlineConnect=0;fontSize=13;" vertex="1" parent="1">
          <mxGeometry x="1115" y="330" width="100" height="110" as="geometry" />
        </mxCell>
        <mxCell id="LuwpnqyTdQGJ-KJP5wzV-15" value="Suppliers" style="rounded=0;whiteSpace=wrap;html=1;fontSize=11;" vertex="1" parent="LuwpnqyTdQGJ-KJP5wzV-14">
          <mxGeometry x="-6" y="-3" width="100" height="40" as="geometry" />
        </mxCell>
        <mxCell id="LuwpnqyTdQGJ-KJP5wzV-16" value="" style="html=1;points=[];perimeter=orthogonalPerimeter;fontSize=13;" vertex="1" parent="LuwpnqyTdQGJ-KJP5wzV-14">
          <mxGeometry x="45" y="50" width="10" height="60" as="geometry" />
        </mxCell>
        <mxCell id="LuwpnqyTdQGJ-KJP5wzV-17" value="" style="endArrow=none;dashed=1;html=1;rounded=0;fontSize=11;entryX=1.001;entryY=0.689;entryDx=0;entryDy=0;entryPerimeter=0;exitX=0;exitY=0.69;exitDx=0;exitDy=0;exitPerimeter=0;" edge="1" parent="1" source="LuwpnqyTdQGJ-KJP5wzV-1" target="LuwpnqyTdQGJ-KJP5wzV-1">
          <mxGeometry width="50" height="50" relative="1" as="geometry">
            <mxPoint x="350" y="410" as="sourcePoint" />
            <mxPoint x="760" y="370" as="targetPoint" />
          </mxGeometry>
        </mxCell>
        <mxCell id="LuwpnqyTdQGJ-KJP5wzV-18" value="[Supplier not exists]" style="text;html=1;strokeColor=none;fillColor=none;align=center;verticalAlign=middle;whiteSpace=wrap;rounded=0;fontSize=11;" vertex="1" parent="1">
          <mxGeometry x="430" y="240" width="100" height="30" as="geometry" />
        </mxCell>
        <mxCell id="LuwpnqyTdQGJ-KJP5wzV-19" value="1.1.3:addSupplier(s)" style="html=1;verticalAlign=bottom;endArrow=block;rounded=0;fontSize=8;entryX=-0.06;entryY=0.524;entryDx=0;entryDy=0;entryPerimeter=0;" edge="1" parent="1">
          <mxGeometry width="80" relative="1" as="geometry">
            <mxPoint x="925" y="410" as="sourcePoint" />
            <mxPoint x="1159.3999999999996" y="411.4399999999996" as="targetPoint" />
          </mxGeometry>
        </mxCell>
        <mxCell id="LuwpnqyTdQGJ-KJP5wzV-20" value="1.1.4:Success" style="html=1;verticalAlign=bottom;endArrow=open;dashed=1;endSize=8;rounded=0;fontSize=8;" edge="1" parent="1">
          <mxGeometry relative="1" as="geometry">
            <mxPoint x="915" y="420" as="sourcePoint" />
            <mxPoint x="760" y="420" as="targetPoint" />
          </mxGeometry>
        </mxCell>
        <mxCell id="LuwpnqyTdQGJ-KJP5wzV-21" value="1.2:Success" style="html=1;verticalAlign=bottom;endArrow=open;dashed=1;endSize=8;rounded=0;fontSize=8;" edge="1" parent="1">
          <mxGeometry relative="1" as="geometry">
            <mxPoint x="745" y="430" as="sourcePoint" />
            <mxPoint x="595" y="430" as="targetPoint" />
          </mxGeometry>
        </mxCell>
        <mxCell id="LuwpnqyTdQGJ-KJP5wzV-22" value="2:Success message" style="html=1;verticalAlign=bottom;endArrow=open;dashed=1;endSize=8;rounded=0;fontSize=8;" edge="1" parent="1">
          <mxGeometry relative="1" as="geometry">
            <mxPoint x="585" y="440" as="sourcePoint" />
            <mxPoint x="425" y="440" as="targetPoint" />
          </mxGeometry>
        </mxCell>
        <mxCell id="LuwpnqyTdQGJ-KJP5wzV-23" value="1.1.5:Failure" style="html=1;verticalAlign=bottom;endArrow=open;dashed=1;endSize=8;rounded=0;fontSize=8;" edge="1" parent="1">
          <mxGeometry relative="1" as="geometry">
            <mxPoint x="915" y="470" as="sourcePoint" />
            <mxPoint x="760" y="470" as="targetPoint" />
          </mxGeometry>
        </mxCell>
        <mxCell id="LuwpnqyTdQGJ-KJP5wzV-24" value="1.2:Failure" style="html=1;verticalAlign=bottom;endArrow=open;dashed=1;endSize=8;rounded=0;fontSize=8;" edge="1" parent="1">
          <mxGeometry relative="1" as="geometry">
            <mxPoint x="750" y="490" as="sourcePoint" />
            <mxPoint x="595" y="490" as="targetPoint" />
          </mxGeometry>
        </mxCell>
        <mxCell id="LuwpnqyTdQGJ-KJP5wzV-25" value="2:failure message" style="html=1;verticalAlign=bottom;endArrow=open;dashed=1;endSize=8;rounded=0;fontSize=8;" edge="1" parent="1">
          <mxGeometry relative="1" as="geometry">
            <mxPoint x="580" y="520" as="sourcePoint" />
            <mxPoint x="420" y="520" as="targetPoint" />
          </mxGeometry>
        </mxCell>
        <mxCell id="LuwpnqyTdQGJ-KJP5wzV-26" value="" style="html=1;points=[];perimeter=orthogonalPerimeter;fontSize=7;" vertex="1" parent="1">
          <mxGeometry x="1055" y="265" width="10" height="70" as="geometry" />
        </mxCell>
        <mxCell id="LuwpnqyTdQGJ-KJP5wzV-27" value="&lt;font style=&quot;font-size: 6px;&quot;&gt;1.1.2:create(name, BN,delivery,&lt;br&gt;Paymenr method, address,supply days)&lt;/font&gt;" style="html=1;verticalAlign=bottom;endArrow=block;entryX=0;entryY=0.5;rounded=0;fontSize=7;entryDx=0;entryDy=0;" edge="1" parent="1" target="LuwpnqyTdQGJ-KJP5wzV-29">
          <mxGeometry x="0.0309" relative="1" as="geometry">
            <mxPoint x="925" y="255" as="sourcePoint" />
            <mxPoint as="offset" />
          </mxGeometry>
        </mxCell>
        <mxCell id="LuwpnqyTdQGJ-KJP5wzV-28" value="return s" style="html=1;verticalAlign=bottom;endArrow=open;dashed=1;endSize=8;exitX=0;exitY=0.95;rounded=0;fontSize=7;" edge="1" parent="1" source="LuwpnqyTdQGJ-KJP5wzV-26">
          <mxGeometry relative="1" as="geometry">
            <mxPoint x="925" y="331" as="targetPoint" />
          </mxGeometry>
        </mxCell>
        <mxCell id="LuwpnqyTdQGJ-KJP5wzV-29" value="&lt;font style=&quot;font-size: 9px;&quot;&gt;s: Supplier&lt;/font&gt;" style="rounded=0;whiteSpace=wrap;html=1;fontSize=11;" vertex="1" parent="1">
          <mxGeometry x="1035" y="245" width="50" height="20" as="geometry" />
        </mxCell>
        <mxCell id="LuwpnqyTdQGJ-KJP5wzV-30" value="" style="html=1;points=[];perimeter=orthogonalPerimeter;fontSize=8;" vertex="1" parent="1">
          <mxGeometry x="1115" y="280" width="10" height="30" as="geometry" />
        </mxCell>
        <mxCell id="LuwpnqyTdQGJ-KJP5wzV-31" value="&lt;font style=&quot;font-size: 6px;&quot;&gt;b=CreateBills()&lt;/font&gt;" style="html=1;verticalAlign=bottom;endArrow=block;entryX=0;entryY=0;rounded=0;fontSize=8;" edge="1" parent="1" source="LuwpnqyTdQGJ-KJP5wzV-26" target="LuwpnqyTdQGJ-KJP5wzV-30">
          <mxGeometry relative="1" as="geometry">
            <mxPoint x="1245" y="230" as="sourcePoint" />
          </mxGeometry>
        </mxCell>
        <mxCell id="LuwpnqyTdQGJ-KJP5wzV-32" value="&lt;font style=&quot;font-size: 6px;&quot;&gt;return b&lt;/font&gt;" style="html=1;verticalAlign=bottom;endArrow=open;dashed=1;endSize=8;exitX=0;exitY=0.95;rounded=0;fontSize=8;entryX=0.926;entryY=0.622;entryDx=0;entryDy=0;entryPerimeter=0;" edge="1" parent="1" source="LuwpnqyTdQGJ-KJP5wzV-30" target="LuwpnqyTdQGJ-KJP5wzV-26">
          <mxGeometry relative="1" as="geometry">
            <mxPoint x="1245" y="268" as="targetPoint" />
          </mxGeometry>
        </mxCell>
      </root>
    </mxGraphModel>
  </diagram>
</mxfile>
